<svg version="1.1" id="Layer_1" xmlns="http://www.w3.org/2000/svg" xmlns:xlink="http://www.w3.org/1999/xlink" x="0px" y="0px"
	 width="10%;" viewBox="0 0 944 864" enable-background="new 0 0 944 864" xml:space="preserve">

	<style type="text/css">
		<defs>
			<style>
		
		#Mountain1{
			stroke-dasharray: 3000;
			stroke-dashoffset:;
			-webkit-animation: dash 2s linear forwards;
			-o-animation: dash 2s linear forwards;
			-moz-animation: dash 2s linear forwards;
			animation: dash 2s linear forwards;
			
		}
		
		@-webkit-keyframes dash {
				from {
				stroke-dashoffset:3100;
				stroke: (255,255,255,0.9);
				fill:rgba(255,255,255,0.1);
				}				
				to {
				stroke-dashoffset:0;
				fill:rgba(255,255,255,0.9);
				stroke: (255,255,255,0.9);
				}	
			}
					
	
		#Righthand, #Lefthand {
			stroke:transparent;
			fill:transparent;
}
			
	#EN{
			stroke-dashoffset:;
		-webkit-animation: Letterdash 1s linear forwards;
			-o-animation: Letterdash 1s linear forwards;
			-moz-animation: Letterdash 1s linear forwards;
			animation: Letterdash 1s linear forwards;
			stroke:transparent;
			animation-delay: 2.4s;

	}	
	
		@-webkit-keyframes Letterdash {
				from {
					stroke:transparent;
					fill:transparent;
				}				
				to {
					stroke:transparent;
					fill:white;
				}	
			}
			
			
			
			
	#G1, #G2, #A, #E1, #E2, #E3, #V, #N, #T, #S{
			stroke-dashoffset:;
			-webkit-animation: Letterdash2 0.5s linear forwards;
			-o-animation: Letterdash2 0.5s linear forwards;
			-moz-animation: Letterdash2 0.5s linear forwards;
			animation: Letterdash2 0.5s linear forwards;
			stroke:transparent;

	}	
	
			@-webkit-keyframes Letterdash2 {
				from {
				stroke:transparent;
				fill:transparent;
				
				}				
				to {
				fill:white;				
				stroke:transparent;
				}	
			}
		
		
		#G1{
			animation-delay: 2.5s;
			}			
		#A{
			animation-delay: 2.55s;
			}			
		#G2{
			animation-delay: 2.6s;
			}			
		#E1{
			animation-delay: 2.65s;
			}			
		#E2{
			animation-delay: 2.7s;
			}	
		#V{
			animation-delay: 2.75s;
			}			
		#E3{
			animation-delay: 2.8s;
			}			
		#N{
			animation-delay: 2.85s;
			}			
		#T{
			animation-delay: 2.9s;;
			}		
		#S{
			animation-delay: 2.95s;
			}			
	
#star, #moon {
			-webkit-animation: Shine 2s linear forwards;
			-o-animation: Shine 2s linear forwards;
			-moz-animation: Shine 2s linear forwards;
			animation: Shine 2s linear forwards;
			}		
			
			@-webkit-keyframes Shine {
				from {
				fill:rgba(255,255,255,0.5);				
				}				
				to {
				fill:gold;		
				}	
			}			
			</style>
		</defs>	
	</style>
<path id="Mountain1" fill="black" opacity="1.000000" stroke-width="1" stroke="black" 
	d="
M490.871216,329.806305 
	C493.672028,328.640320 495.310852,330.295044 496.964661,331.627350 
	C504.877563,338.002167 512.385986,337.349365 519.297974,329.964722 
	C522.071777,327.001190 526.113770,325.139038 526.386353,320.479980 
	C538.703003,322.818176 550.257202,317.521271 551.286865,307.019379 
	C547.908325,305.396698 545.716675,305.940735 543.848877,309.695526 
	C542.026062,313.359863 538.906067,315.650116 534.203186,314.943146 
	C529.692749,314.265045 527.890625,310.951752 530.996765,307.474091 
	C534.123108,303.973755 536.441528,300.043457 539.022156,295.809387 
	C538.597046,294.035034 536.462646,292.818390 536.445862,290.428894 
	C536.430725,288.282135 534.498108,287.249237 532.542969,287.431915 
	C530.631409,287.610535 528.593079,288.027588 528.125183,290.644745 
	C527.654846,293.275848 527.127747,295.881531 527.329468,298.566223 
	C527.605896,302.244049 525.881897,305.025818 522.530029,305.821075 
	C517.088501,307.111969 518.181702,310.825470 518.680420,314.409088 
	C518.858765,315.689789 519.846802,316.874023 519.951843,318.144714 
	C520.105225,319.999573 521.014404,322.627472 518.358704,323.256165 
	C515.673706,323.891724 513.179382,322.521271 512.574463,319.720551 
	C510.961365,312.252228 508.903442,304.807465 509.853271,297.001434 
	C509.916077,296.485229 508.858368,295.832672 508.121277,295.023285 
	C504.172485,300.563141 504.616333,306.362366 506.046936,312.201080 
	C507.149597,316.701385 507.005005,317.547211 502.927185,321.456207 
	C499.722412,319.227173 496.020966,317.440887 498.381836,312.248383 
	C499.078735,310.715576 497.697601,309.468201 497.188812,308.092285 
	C495.883759,304.563293 493.727478,301.075836 496.314575,296.863190 
	C494.042847,296.259857 491.852631,297.602875 490.038452,295.992462 
	C488.991821,303.978058 489.427856,311.615265 489.158691,319.227936 
	C489.055450,322.147552 484.947510,325.498230 482.249817,324.624237 
	C479.394287,323.699188 477.308105,321.769379 478.669708,318.216187 
	C479.727966,315.454590 477.095551,314.730103 476.173523,313.046356 
	C476.348389,321.953766 478.629730,330.499603 478.348145,339.364380 
	C478.087433,347.572113 470.569153,352.820587 462.978485,349.492767 
	C459.060516,353.856201 460.271790,359.737244 458.557465,364.780792 
	C456.567444,370.635406 454.798126,372.813568 448.448486,373.219604 
	C445.183014,373.428436 443.358826,374.921661 444.374603,377.823456 
	C445.803375,381.905060 446.361725,385.588531 444.367645,389.636261 
	C443.718506,390.953918 444.265625,392.860901 444.265625,394.570923 
	C447.585846,395.456696 449.301971,394.076813 450.577393,391.613342 
	C451.628510,389.583069 452.402618,387.138916 455.417450,387.283417 
	C458.305908,387.421906 458.583405,390.140930 460.073395,391.715149 
	C464.167511,396.040710 462.121704,399.668762 459.855072,403.571381 
	C457.431244,407.744720 453.671478,409.213013 449.028381,409.296173 
	C443.912506,409.387817 443.187714,410.554382 445.406128,415.340546 
	C446.157043,416.960541 445.880524,418.599121 446.337585,420.147125 
	C447.455566,421.279694 448.853973,420.894257 450.147247,420.906677 
	C456.470398,420.967560 462.756409,420.880157 468.989197,422.568390 
	C475.973846,424.460297 483.211945,423.212891 490.328888,423.361267 
	C494.407104,423.446350 497.687531,425.137817 501.124451,426.770477 
	C502.100800,427.234314 502.797821,427.900970 502.581177,429.076721 
	C502.374176,430.200287 501.522583,430.760468 500.495361,430.945923 
	C499.353180,431.152130 498.182281,431.295807 497.023529,431.298492 
	C487.692261,431.320221 478.360870,431.308655 469.029541,431.292267 
	C466.476746,431.287781 463.780151,431.386108 465.858124,425.638733 
	C444.469421,434.637085 424.657837,424.946259 404.416138,426.984619 
	C404.378174,426.154602 404.340210,425.324585 404.302246,424.494568 
	C410.377350,424.079407 415.578857,420.434021 421.945801,420.806305 
	C426.620483,421.079620 428.245575,418.250397 426.018066,414.131470 
	C423.901123,410.216919 421.770782,406.669830 426.175629,402.653320 
	C427.241791,401.681122 426.638367,398.878052 426.858887,396.246033 
	C421.202789,398.555054 416.187103,397.685669 411.428070,395.068573 
	C408.479889,393.447296 406.123077,391.677185 405.888428,387.589996 
	C405.399811,379.080872 398.961792,374.702789 390.360626,376.010376 
	C385.680664,376.721893 380.854553,376.356964 376.153137,377.643677 
	C375.693695,379.502319 377.485138,380.338287 378.341553,380.247711 
	C384.173401,379.631042 388.555603,383.598145 393.773071,384.805939 
	C396.253510,385.380157 398.091705,386.396576 397.536835,390.295471 
	C391.885071,387.770569 386.828644,390.556641 381.526459,391.217102 
	C380.245605,391.376678 378.653564,391.397949 378.023804,389.919281 
	C377.369019,388.381836 378.845947,388.045959 379.817993,387.510986 
	C370.043457,383.252716 359.013367,383.322327 349.363617,378.645294 
	C349.069580,378.502747 348.592438,378.275787 348.427216,378.397003 
	C343.669098,381.887146 337.711609,379.399628 332.471405,381.915283 
	C326.830170,384.623413 318.513062,386.677155 314.282562,383.169037 
	C307.882111,377.861511 301.549194,381.050995 295.432709,379.531769 
	C294.852966,379.387787 294.338440,378.981201 293.391571,378.486450 
	C296.222931,375.662231 299.703064,377.624481 302.842163,376.131134 
	C300.808868,373.618896 297.759460,374.165588 295.356842,373.296448 
	C293.782745,372.727081 291.838531,372.601105 292.109070,370.314056 
	C292.354584,368.238525 293.714813,366.781281 295.877869,367.230774 
	C304.810272,369.087006 311.467072,364.058502 318.318573,359.860809 
	C322.422455,357.346588 326.333282,357.150146 330.537262,359.188995 
	C336.906555,362.277954 342.387573,360.181244 342.705536,353.471680 
	C343.075012,345.675110 345.436768,339.190155 350.455688,333.450287 
	C350.616974,333.265869 350.476135,332.817261 350.476135,331.174530 
	C345.293243,336.195251 338.940887,337.372620 333.407867,340.254242 
	C333.081055,347.211243 332.023315,348.455017 326.249084,348.742065 
	C322.409271,348.932983 319.513855,345.390991 320.385284,341.568817 
	C321.964142,334.643829 321.949341,333.657776 320.110901,324.491547 
	C317.700684,325.569580 318.039581,327.711517 318.194489,329.607727 
	C318.720184,336.042786 317.297485,342.125549 315.230804,348.140533 
	C314.819183,349.338470 314.314209,350.608826 313.148682,350.686127 
	C306.231781,351.145050 300.937775,355.786926 294.599304,357.695801 
	C292.988037,358.181091 291.422974,358.140717 290.739136,356.504120 
	C289.924591,354.554749 291.782135,352.630768 292.870636,352.610931 
	C297.967529,352.517975 298.801636,348.173737 300.955933,345.200897 
	C303.883789,341.160553 306.082031,337.378387 303.866272,331.620697 
	C302.656311,328.476746 306.851166,325.296356 309.881897,323.253540 
	C311.810394,321.953674 313.367004,320.768463 313.212769,318.252686 
	C306.818512,316.092255 300.211273,319.680695 300.703400,326.408966 
	C301.429932,336.342102 297.596527,341.507812 288.650665,345.175171 
	C281.371307,348.159363 274.902924,353.120972 268.071747,357.200378 
	C267.499969,357.541840 266.916687,357.869141 266.316895,358.157532 
	C264.835602,358.869781 263.254120,359.105652 262.405975,357.425842 
	C261.520355,355.671814 262.834290,354.682251 264.256836,353.945129 
	C273.399139,349.207672 281.781647,343.191345 290.740570,338.173889 
	C294.168793,336.253876 295.413361,333.701050 295.769623,330.281464 
	C295.958527,328.468231 295.655304,326.603943 295.841370,324.790100 
	C296.210144,321.195709 294.696747,316.659210 299.899353,315.185974 
	C306.237427,313.391174 312.735443,309.889862 318.639648,316.241455 
	C318.865021,316.483917 319.084381,316.914551 319.328247,316.930756 
	C326.444733,317.403015 324.801697,322.730896 325.189575,327.138184 
	C325.754333,333.556091 330.094055,336.051880 336.116486,333.826569 
	C342.046661,331.635284 347.863770,329.406647 348.137451,321.659515 
	C354.411865,320.168488 352.544525,310.706055 360.178741,309.854309 
	C363.860535,309.443542 366.494751,305.873566 365.911041,301.154022 
	C365.330780,296.462524 366.847900,293.392517 372.432709,293.597900 
	C375.601562,293.714386 376.823639,291.149597 377.732300,288.459198 
	C379.583435,282.978363 378.963318,277.242645 379.571716,271.637787 
	C379.846100,269.110107 380.317474,266.338989 382.972137,266.281616 
	C390.095062,266.127625 394.632385,260.999420 400.217529,257.989410 
	C403.928497,255.989471 406.928040,255.421844 410.825684,257.566986 
	C415.184784,259.966125 419.950745,260.133820 424.748413,257.956177 
	C430.220490,255.472412 434.164307,256.924225 436.828064,262.067596 
	C438.654419,265.594025 440.041229,269.331482 444.247375,271.013611 
	C446.084198,271.748199 446.105774,273.924957 446.320007,275.802155 
	C446.924316,281.097473 448.616272,282.130493 453.328796,280.196014 
	C454.445312,279.737671 455.518951,279.444366 456.713318,279.640411 
	C457.862274,279.829010 459.012512,280.010834 460.164825,280.177612 
	C467.411621,281.226105 472.665375,283.037323 472.167908,292.724365 
	C471.827209,299.358490 474.269684,300.095581 482.765259,301.305817 
	C484.344452,299.594818 483.687988,297.552612 483.283447,295.693146 
	C482.396149,291.614594 483.614716,288.675018 487.069122,286.244110 
	C491.533295,283.102570 496.051941,281.093140 501.353516,283.833099 
	C502.655029,284.505737 503.684204,285.623444 505.283813,285.812988 
	C512.192322,286.631470 516.174805,290.199982 516.441528,297.493805 
	C516.502930,299.173248 516.806946,301.708557 519.275940,301.373688 
	C521.449707,301.078888 523.224854,299.333221 523.428833,296.941895 
	C523.624146,294.651245 523.312195,292.318024 523.234131,290.003143 
	C523.075867,285.310608 525.383545,282.860565 530.004150,282.818176 
	C531.836548,282.801361 533.670471,282.850677 535.501282,282.792389 
	C541.937622,282.587494 545.504333,285.821167 545.725647,292.105286 
	C545.989380,299.597839 545.989502,299.597839 554.391479,300.072083 
	C554.655884,293.138397 557.074341,286.624451 558.734436,279.922363 
	C559.355774,277.413971 560.048340,274.692413 562.097168,273.404602 
	C572.260437,267.016418 582.249817,260.021545 595.351685,261.669281 
	C598.337952,262.044830 599.718689,263.753143 600.978943,265.942017 
	C601.881348,267.509369 602.006531,269.898102 603.792114,270.514435 
	C611.657776,273.229309 612.881958,280.508820 615.360901,286.885406 
	C618.612122,295.248535 623.629028,297.852753 632.533752,294.379669 
	C636.420715,292.863647 638.219910,294.141632 640.577576,296.629486 
	C644.872314,301.161377 649.723389,305.167328 649.900146,312.246643 
	C649.959106,314.604370 652.166504,315.637573 654.424072,316.269714 
	C660.672302,318.019165 664.883606,321.602386 667.636902,327.927246 
	C672.037537,338.035950 676.920532,347.996002 684.486145,356.380707 
	C687.864258,360.124573 691.375854,363.565186 695.472412,366.465668 
	C699.106995,369.039001 698.185608,369.729004 695.539185,373.174225 
	C690.604553,379.598053 686.544800,373.472931 683.032959,372.381226 
	C678.083618,370.842621 673.170349,370.912598 668.853516,371.774475 
	C663.433838,372.856567 658.132751,373.458801 652.747498,373.159698 
	C657.739807,379.576447 664.406616,376.877899 670.592041,376.787628 
	C674.405945,376.731964 678.219299,376.634674 682.033203,376.588989 
	C684.208557,376.562927 686.055298,377.196594 686.617249,379.578400 
	C687.158691,381.873718 685.332703,383.071411 683.828735,383.787567 
	C682.015320,384.651154 680.514465,385.284698 679.360657,387.243561 
	C678.032043,389.499268 675.646484,389.664124 674.299927,386.973694 
	C673.296021,384.967896 671.996521,384.699524 669.944641,384.598541 
	C666.273804,384.417877 662.677734,384.480133 659.007141,384.835358 
	C654.551697,385.266479 650.267212,386.156403 645.520325,383.881012 
	C642.440002,382.404510 637.643005,383.799591 633.828125,384.756897 
	C629.678772,385.798096 625.569702,386.975159 621.312012,387.376984 
	C621.941284,394.118744 621.818787,394.194000 614.937500,392.053741 
	C614.346069,391.869781 613.434204,391.663055 613.071533,391.958466 
	C609.108948,395.186157 604.297363,390.860901 600.157471,393.486145 
	C599.168152,394.113464 597.076294,393.193665 596.608582,391.481689 
	C596.104980,389.638062 597.554260,388.280212 598.946289,388.236267 
	C610.843933,387.860321 620.424805,377.921265 633.242981,380.526337 
	C639.100586,381.716797 643.611816,378.207672 645.068604,374.075775 
	C644.164795,372.983887 642.858093,373.101837 641.863281,373.512329 
	C629.929321,378.436340 617.464966,375.290680 605.260254,375.861267 
	C602.410645,375.994446 599.768616,375.953125 597.065857,377.106934 
	C593.584351,378.593048 590.334473,378.745758 589.971375,372.556671 
	C583.044922,377.788727 575.741943,375.913940 568.370056,375.418793 
	C567.782410,378.977112 566.886780,382.013824 569.270264,385.072784 
	C571.960083,388.524933 568.584106,391.607697 567.898621,395.536407 
	C580.532532,396.619934 593.028503,397.125641 605.303955,399.390472 
	C604.873901,402.588043 603.129761,403.611969 601.360168,403.650238 
	C591.403564,403.865570 582.071777,408.172943 571.841736,407.401733 
	C565.583069,406.929901 560.604248,405.319489 556.761597,400.639465 
	C543.760559,406.837616 530.635864,405.627014 516.807800,404.169189 
	C518.216431,400.240845 520.555969,400.704224 522.578308,400.807617 
	C530.294067,401.202179 537.567078,398.410217 545.146240,397.755005 
	C549.004395,397.421448 550.947693,394.987640 550.460022,390.820190 
	C550.019287,387.053650 549.899719,383.249542 549.610107,379.049774 
	C545.334534,379.206329 541.236206,380.745636 537.505798,377.736908 
	C535.095276,375.792755 532.807861,373.897247 532.154602,370.849121 
	C531.624023,368.373657 530.246582,367.283325 528.259827,365.745422 
	C523.206604,361.833557 517.419067,363.202148 512.566101,363.815186 
	C503.351379,364.979187 494.402008,368.243225 484.980225,370.730652 
	C488.293427,372.643616 492.249390,370.691559 494.908264,372.517120 
	C495.776917,375.309479 492.871826,375.400970 492.713806,377.536377 
	C495.015564,379.819641 494.095154,382.322021 491.747345,385.119629 
	C494.972626,385.762970 497.032104,386.957916 495.300476,390.467987 
	C494.304199,392.487488 495.594238,393.814270 497.586121,393.819366 
	C500.695343,393.827332 502.374146,396.540192 505.116119,397.370850 
	C507.436218,398.073669 507.167267,400.145477 505.045349,401.449493 
	C503.334808,402.500702 501.528656,403.340729 499.432526,403.326385 
	C498.271271,403.318451 496.683533,402.963470 496.013458,403.568420 
	C489.520874,409.430145 483.434998,403.996368 477.228363,403.021729 
	C475.167145,402.697998 472.533813,402.461212 472.472870,399.559753 
	C472.418884,396.990845 474.831024,396.687103 476.667664,395.981598 
	C477.121185,395.807404 477.534637,395.528961 478.169830,395.189972 
	C477.891968,392.740601 476.053253,391.160645 474.869476,389.256500 
	C474.020752,387.891296 473.391510,386.506989 474.741943,385.191589 
	C476.120026,383.849213 477.061462,385.174530 478.158600,385.894012 
	C479.359467,386.681549 480.712738,387.236694 482.477936,388.137085 
	C481.985443,384.021545 480.875732,379.911011 487.360352,381.625061 
	C488.596771,381.951904 490.284637,378.871368 490.709167,376.395508 
	C487.154846,374.866058 483.926422,376.323273 480.762268,376.467987 
	C473.635376,376.793945 466.527588,377.521606 459.405792,377.991302 
	C458.285736,378.065155 457.100525,377.752380 456.004974,377.421417 
	C454.989044,377.114502 454.272186,376.332642 454.463745,375.168671 
	C454.665985,373.940125 455.642761,373.678589 456.719849,373.709473 
	C459.352478,373.784912 462.120148,374.462128 464.281616,371.744995 
	C461.730835,368.881866 462.880829,366.878326 466.407288,367.095947 
	C472.180359,367.452240 473.478455,364.719849 473.096741,359.677582 
	C472.822357,356.053192 474.346863,353.532654 478.604065,353.757660 
	C479.733673,353.817383 480.882721,353.509979 481.937469,353.381531 
	C483.357147,349.335999 483.599274,344.541992 489.573456,344.694366 
	C486.121033,339.907471 486.605103,333.946777 490.871216,329.806305 
M573.665222,357.082642 
	C572.075439,359.178711 570.694763,361.381744 569.768921,364.130096 
	C573.110596,365.589905 577.118103,363.922577 579.560425,366.182404 
	C582.726746,369.112152 585.979736,368.159027 589.370239,367.750000 
	C591.344727,367.511841 593.298340,366.877930 595.267212,366.851349 
	C611.195618,366.636475 627.023743,368.419373 642.899902,369.266327 
	C649.262024,369.605713 656.021057,371.062714 661.907288,367.420349 
	C663.956543,366.152283 665.229980,365.713867 667.628418,366.412567 
	C673.078186,368.000122 676.519287,363.892120 674.733276,358.343048 
	C673.926086,355.835175 672.843689,353.400818 672.221130,350.851318 
	C669.986816,341.701416 664.384521,334.192627 660.240662,325.977661 
	C659.835388,325.174347 658.798584,324.604065 657.942139,324.129242 
	C654.949036,322.470001 653.472168,323.060059 653.191406,326.828613 
	C652.666870,333.870361 657.740967,337.168243 662.185303,340.740814 
	C666.654724,344.333496 671.098511,347.672791 670.888733,354.223175 
	C670.851074,355.400146 671.104919,356.537659 670.104492,357.445801 
	C663.984253,363.001556 652.113159,358.590729 649.507874,350.528168 
	C648.344666,346.928314 647.794495,344.257111 649.976807,341.180634 
	C650.886719,339.897949 649.992981,338.809753 649.405151,337.550171 
	C646.916443,332.216614 640.072693,329.473267 640.796021,322.009216 
	C640.986938,320.038544 639.680237,317.499786 640.849854,315.430115 
	C642.608154,312.318573 641.106079,310.080200 639.328613,307.893860 
	C638.274902,306.597687 636.844543,305.450562 636.713806,303.759766 
	C636.537476,301.478210 636.535767,298.863800 633.514771,299.313782 
	C629.861328,299.857971 625.123840,297.356873 622.575989,302.335236 
	C623.715027,303.890961 625.148621,303.963074 626.351868,303.483521 
	C630.523193,301.821106 632.313721,304.142395 634.076050,307.401764 
	C637.018127,312.843201 635.087402,318.475769 634.514526,323.838226 
	C634.294434,325.898132 631.213379,329.222473 627.402222,328.709167 
	C621.276917,327.884277 619.749146,324.867889 622.638245,319.242828 
	C623.917297,316.752533 624.802734,314.014343 623.386841,311.631042 
	C621.946106,309.205872 619.227966,310.513947 616.971863,310.767242 
	C615.664978,310.914001 614.329163,310.856018 613.008545,310.817413 
	C609.546509,310.716156 606.266724,314.716461 606.185608,318.919128 
	C606.095093,323.609436 609.304932,322.060730 611.758057,322.029999 
	C616.562195,321.969788 618.698853,323.926086 619.157104,328.777527 
	C619.344299,330.759125 619.641968,332.735901 619.714417,334.721283 
	C619.796936,336.982880 620.891968,338.847626 622.810852,339.462280 
	C634.429626,343.184326 638.962708,354.832825 647.838928,361.596863 
	C649.188049,362.624969 648.874878,364.343048 648.051941,365.731720 
	C647.196411,367.175568 645.926453,366.702820 644.539001,366.553802 
	C640.933899,366.166565 637.188538,365.034790 633.823975,365.245117 
	C628.792480,365.559692 625.974304,363.415619 623.052429,360.482727 
	C624.168213,357.293762 628.280029,357.063660 628.205139,353.437744 
	C626.061279,351.021942 623.497803,349.093597 620.416870,347.994171 
	C618.464355,349.786804 620.053040,352.571686 617.575806,354.438995 
	C614.981445,352.593292 611.818298,352.627289 608.467773,353.023285 
	C605.712524,353.348938 603.198792,351.389008 602.943176,348.930786 
	C602.467590,344.356140 601.561768,339.424561 606.341431,335.877869 
	C608.050415,334.609772 610.355042,332.715332 608.762390,329.681458 
	C605.872864,329.571625 605.126465,331.825562 603.838867,333.458923 
	C602.267944,335.451752 600.477600,337.541077 597.625366,336.681549 
	C594.758423,335.817627 593.052551,333.745697 593.814026,330.530579 
	C589.735107,329.468048 588.313171,332.197144 587.071594,334.683319 
	C583.277588,342.280090 578.922302,349.525269 573.665222,357.082642 
M398.639374,280.355591 
	C401.889801,281.150299 401.039886,283.167694 400.294952,285.382965 
	C397.787598,292.839203 395.510345,300.620117 397.820740,308.286713 
	C399.292419,313.170258 402.028778,317.533508 400.873016,322.983337 
	C400.533142,324.585938 401.252502,326.635193 403.514496,326.295135 
	C405.196198,326.042358 407.315826,325.525360 407.341797,323.110138 
	C407.361298,321.301575 407.137878,319.483856 406.927460,317.681305 
	C406.718109,315.887909 407.028809,314.432220 408.720215,313.405029 
	C412.608917,311.043304 413.741150,306.920593 414.352478,302.957275 
	C414.792267,300.106171 415.141876,297.638214 417.867401,296.345795 
	C416.719727,293.890472 413.397797,292.959930 414.796692,289.263885 
	C420.919525,290.875000 427.202972,291.480072 433.670807,291.668976 
	C435.845276,287.460419 442.674835,286.008636 440.900116,279.384888 
	C428.874420,279.806702 428.731720,279.006592 429.367218,270.166412 
	C429.782654,264.386810 425.519318,261.731415 418.691681,264.100952 
	C422.438751,266.850037 426.652649,268.774475 426.413879,274.293640 
	C426.240417,278.302338 430.389099,282.358246 426.323425,287.004761 
	C423.869995,283.370575 423.340332,279.582153 422.267090,276.014191 
	C421.749298,274.292816 421.788116,272.274231 419.384766,271.868073 
	C416.787781,271.429199 416.805695,274.040558 415.535706,275.142151 
	C413.196411,277.171173 416.080750,280.865814 412.683380,283.209869 
	C406.694580,277.262787 409.652985,270.588745 410.914978,264.177246 
	C407.230804,259.451874 403.152222,261.146973 399.583008,263.887665 
	C395.707916,266.863190 391.559448,269.275024 387.159241,271.216553 
	C384.061768,272.583252 383.013947,274.581818 383.242981,277.824677 
	C383.917450,287.374268 381.948547,296.568146 379.626129,305.777679 
	C378.710663,309.407959 377.051697,312.383972 375.450409,315.632507 
	C373.148010,320.303436 368.216187,322.899292 366.799591,328.100372 
	C366.318573,329.866364 365.605743,333.094482 362.534607,331.229584 
	C360.346680,329.901001 359.311218,327.905426 361.252319,324.931793 
	C363.416779,321.616150 364.669830,317.705627 366.418610,313.834869 
	C359.380035,314.367950 357.506836,315.728394 358.142517,321.352478 
	C359.062531,329.491913 356.243378,337.285461 356.888000,345.203705 
	C355.091187,346.518616 353.152771,345.941528 351.402283,346.328156 
	C348.597809,346.947601 348.581116,349.542725 348.628204,351.491394 
	C348.691193,354.099731 350.727081,353.421600 352.345795,352.813324 
	C353.806244,352.264465 355.293030,352.565369 356.779602,352.513733 
	C366.356995,352.181274 372.452576,349.958496 373.280151,339.601562 
	C373.545746,336.278168 374.383240,331.413300 377.731323,329.961456 
	C383.645569,327.396973 383.229065,321.257782 386.236359,317.141235 
	C389.381195,312.836395 392.064240,307.267303 388.875854,301.213043 
	C388.283020,300.087372 388.387817,297.781464 389.166412,296.887665 
	C392.467407,293.098114 392.787720,288.063141 395.108002,283.911865 
	C395.836639,282.608276 396.553192,281.274048 398.639374,280.355591 
M500.007416,362.334045 
	C505.742096,360.830017 511.025696,357.733398 517.216187,357.807922 
	C526.149231,357.915497 528.049866,356.353943 530.261841,347.707916 
	C530.987488,344.871643 532.604797,343.038513 535.657654,342.645447 
	C538.581848,342.268890 540.236572,343.401489 541.334961,346.224823 
	C542.654724,349.617157 548.574219,351.145966 553.147827,349.509491 
	C551.641541,347.730103 550.184814,346.009186 548.276184,343.754425 
	C551.315979,342.571625 551.514832,337.805511 555.844604,339.139099 
	C561.236206,340.799713 561.755432,340.581390 561.849182,334.974823 
	C561.932495,329.982513 561.600769,324.977234 561.831909,319.995300 
	C562.005554,316.253113 563.896057,312.724976 567.697205,312.283020 
	C571.968933,311.786377 572.443909,315.422333 572.326477,318.861603 
	C572.284058,320.103546 573.000000,321.726074 574.167358,321.269440 
	C576.472473,320.367828 579.639343,321.576782 581.094910,319.297852 
	C582.648010,316.866119 580.359497,314.978668 578.847473,313.299103 
	C577.794739,312.129761 576.454590,311.090759 577.912109,309.564331 
	C579.291748,308.119354 580.466980,309.329620 581.804504,310.136749 
	C585.363708,312.284485 589.151550,313.377563 593.492981,313.104492 
	C601.480957,312.602020 605.933350,307.600342 609.835205,301.506897 
	C613.785828,295.337372 612.496826,286.242218 606.211426,280.840271 
	C607.815186,286.821838 610.099487,292.327087 606.366882,297.883179 
	C601.946289,296.059357 599.885437,292.779266 599.527832,288.576508 
	C599.193970,284.653076 596.380615,282.167786 593.657837,281.227997 
	C591.137817,280.358215 588.463318,279.497864 585.586304,278.040375 
	C585.793030,279.973663 586.061340,281.272766 586.048035,282.568939 
	C585.991455,288.084076 585.871033,293.204315 591.458496,297.070007 
	C593.600708,298.552094 596.630310,302.801514 592.643921,306.987488 
	C590.974854,304.265076 589.607666,302.035004 588.067627,299.523041 
	C585.789795,301.040985 583.334595,301.022675 580.884705,301.222351 
	C576.782227,301.556763 573.812195,297.922699 575.832581,294.383789 
	C579.944397,287.181702 575.804688,281.100311 574.363708,274.317963 
	C569.321228,275.332855 565.905212,276.803864 563.874451,281.504059 
	C561.268433,287.535919 560.685730,293.919769 559.194458,300.138763 
	C557.243164,308.276306 554.642273,316.162292 548.315979,321.972198 
	C544.414307,325.555389 541.874390,329.958282 539.107666,334.277313 
	C533.713562,342.697784 527.014893,349.021118 516.286133,349.636505 
	C513.350281,349.804901 510.064087,350.275055 507.655914,351.765594 
	C503.816742,354.141876 500.372284,357.330750 500.007416,362.334045 
M417.502441,319.607941 
	C417.161133,321.534180 417.803558,322.402802 419.905457,322.161438 
	C424.569550,321.625885 427.347656,323.669952 428.686981,328.258423 
	C429.754913,331.917053 431.594116,334.957001 436.478027,333.352295 
	C438.438232,332.708282 439.851410,334.232086 441.160339,335.584930 
	C443.122955,337.613342 443.745544,340.285614 444.722534,342.866852 
	C444.805054,335.088623 443.966003,327.346710 447.871307,319.598969 
	C445.851013,319.598969 445.054077,319.643127 444.263245,319.592102 
	C437.004425,319.123871 435.359924,315.876862 439.044586,309.641663 
	C440.210602,307.668457 440.835388,305.383667 441.859375,303.316528 
	C443.921692,299.153137 441.728394,293.839783 446.050323,290.257355 
	C442.843262,289.212677 441.627319,291.289124 440.074768,292.659607 
	C436.860809,295.496613 433.939941,299.098175 429.229706,299.095215 
	C424.832764,299.092438 423.309601,301.550842 421.993927,305.179443 
	C420.353058,309.704956 420.098175,314.642395 417.502441,319.607941 
M382.885742,354.594757 
	C373.127350,356.638885 363.318268,358.063751 353.296143,357.315613 
	C347.604065,356.890686 346.980743,357.246704 345.976959,360.782715 
	C347.678589,360.713867 348.279114,358.177216 350.364075,358.873352 
	C353.743591,364.452881 354.642822,369.575562 346.910004,373.371582 
	C353.031738,373.095001 358.187988,374.630066 363.764221,376.066895 
	C363.582489,372.833374 364.813568,371.020996 366.962524,369.724854 
	C371.451874,367.017181 376.730438,366.504700 381.575562,365.915009 
	C387.707397,365.168732 394.118469,360.062531 394.345428,353.064636 
	C390.753845,353.567780 387.081390,352.488281 382.885742,354.594757 
M412.967560,349.464508 
	C414.320404,348.904785 415.712311,348.637268 416.835754,347.401001 
	C422.251099,341.441742 422.173309,334.473358 421.145905,326.806549 
	C413.896545,329.374512 406.896667,331.064636 399.473877,330.377869 
	C392.630737,329.744751 390.414917,331.679108 390.302063,338.776611 
	C390.224792,343.636627 388.348633,345.557587 383.458252,345.747803 
	C380.365234,345.868134 376.050659,345.236572 375.330200,350.596893 
	C386.303009,350.932495 394.550232,346.238831 400.615845,337.564789 
	C403.240570,333.811279 403.925903,333.630554 406.443909,337.458679 
	C407.187531,338.589203 407.458893,339.757843 407.766235,341.073517 
	C408.837128,345.658386 407.281403,349.430725 404.527588,353.122742 
	C407.464081,352.263245 409.300293,349.782349 412.967560,349.464508 
M460.114624,341.976013 
	C460.326935,342.197571 459.824310,343.178284 460.770630,342.600922 
	C460.880707,342.533783 460.876221,342.293610 460.945892,342.143463 
	C462.757050,338.241180 464.562286,333.019775 462.820496,330.059265 
	C458.721771,323.092743 462.208801,316.464264 461.673889,309.771759 
	C461.559631,308.342468 460.964386,306.973267 461.558868,305.380524 
	C463.776611,299.438904 466.014923,293.474945 466.149414,286.740417 
	C462.795074,285.520264 458.531738,283.526611 456.130890,286.591980 
	C453.798065,289.570526 451.953674,294.056854 453.860352,298.329834 
	C455.938324,302.986694 455.151031,307.830017 455.334717,312.598785 
	C455.444763,315.454498 454.342651,317.586945 450.845886,315.921509 
	C450.076630,318.323212 451.177643,319.150177 452.990234,320.293701 
	C456.351685,322.414337 459.667450,325.105804 459.842560,329.527710 
	C459.998932,333.476593 460.878326,337.432983 460.114624,341.976013 
M425.910187,363.589691 
	C424.952667,361.253510 423.566376,359.468567 420.692963,360.149231 
	C418.908386,360.571960 417.022247,361.228668 416.376617,363.130585 
	C415.500946,365.710144 416.742676,367.814301 418.908508,369.027496 
	C420.811523,370.093536 421.133881,372.752350 423.634155,373.314728 
	C425.912231,370.661682 427.418121,367.878632 425.910187,363.589691 
M323.421051,374.352997 
	C323.020142,374.948914 321.844971,375.067139 322.264801,376.181122 
	C330.606628,377.541229 336.377472,373.610962 336.357147,366.578522 
	C334.424194,365.928223 332.660492,366.111237 331.639404,368.060669 
	C329.963623,371.259979 326.998260,372.662476 323.421051,374.352997 
M435.785980,352.655334 
	C435.672363,352.094879 435.479492,352.068634 435.246429,352.593903 
	C435.182129,352.738708 435.182831,352.921570 435.186768,353.086182 
	C435.306396,358.085632 435.260834,363.137787 433.964935,367.946930 
	C432.243225,374.336151 431.798248,377.204071 433.120117,383.818329 
	C437.658325,373.732239 435.162842,363.332214 435.785980,352.655334 
M432.517792,389.935974 
	C430.981812,396.598694 433.176941,402.635162 435.765381,409.942963 
	C435.765381,402.646057 435.765778,396.667328 435.764343,390.688629 
	C435.764252,390.356323 435.763794,390.022858 435.738525,389.691864 
	C435.632233,388.299255 435.328552,386.804535 433.652893,386.839264 
	C432.215271,386.869080 432.881561,388.375977 432.517792,389.935974 
M558.386353,375.727997 
	C558.568298,377.144684 558.237244,378.695282 559.453186,379.948303 
	C560.348572,365.373596 559.913452,358.222076 557.559265,355.671173 
	C558.645447,362.400024 558.103271,368.652161 558.386353,375.727997 
M444.405457,363.758667 
	C444.545258,364.693909 444.166473,365.803467 445.569244,366.560303 
	C451.287476,363.803162 450.728760,357.744171 452.277069,352.671082 
	C451.197723,357.414429 446.769867,359.465088 444.405457,363.758667 
M523.066040,336.806091 
	C522.109497,337.261322 520.612793,337.049133 520.653748,338.741455 
	C525.682922,342.780518 527.258911,342.085571 532.448914,332.454010 
	C529.353027,335.845947 525.773560,333.944916 523.066040,336.806091 
M585.519714,274.339722 
	C587.760010,271.877991 585.685669,269.887512 585.067993,267.600891 
	C582.571777,267.473206 580.842285,268.405334 578.902649,269.955811 
	C581.308716,271.513763 582.158325,274.346313 585.519714,274.339722 
M497.772308,340.347473 
	C497.881409,343.071533 495.693298,346.818024 500.783417,347.404541 
	C504.236847,342.392944 503.880737,341.408417 497.772308,340.347473 
M421.880310,384.737762 
	C427.203796,384.678741 426.976868,381.359283 426.275177,377.626892 
	C427.285492,385.566437 420.965637,381.349030 417.955750,382.493866 
	C418.657166,383.956787 419.939941,384.272400 421.880310,384.737762 
z"/>
<path id="Righthand" fill="none" opacity="1.000000" stroke-width="3" stroke="#000000"
	d="
M575.972778,437.937805 
	C587.403503,430.180939 598.260986,421.934448 611.189270,417.795349 
	C618.216003,415.545685 625.958313,414.856934 632.837036,419.333771 
	C640.378967,424.242279 639.917053,428.452881 633.701660,436.181915 
	C631.396729,439.048187 628.012268,440.772675 624.852844,442.601105 
	C613.324341,449.273041 604.861084,458.864685 597.933350,470.065399 
	C596.486694,472.404266 594.408081,474.381531 593.099731,477.002014 
	C594.509216,478.489441 596.231506,477.764374 597.727905,477.506409 
	C618.576843,473.912079 632.438904,460.764709 643.646790,443.924042 
	C649.011719,435.862885 652.412170,426.877563 656.258545,418.097229 
	C659.428162,410.862030 664.112305,406.163086 672.777039,407.638977 
	C675.116516,408.037506 676.544067,406.657013 677.600891,404.822876 
	C680.005859,400.649109 682.523804,396.530029 684.711365,392.243561 
	C688.954773,383.928650 696.680847,380.711853 705.103333,384.474335 
	C708.091187,385.809052 709.618896,384.870605 711.538025,382.899719 
	C718.663696,375.581909 727.000549,370.774536 737.618591,371.615326 
	C744.879822,372.190308 748.449219,374.704895 744.020325,382.374115 
	C739.028137,391.018646 733.921936,399.597321 728.854736,408.198425 
	C728.040466,409.580536 726.722351,410.743042 727.018860,412.967865 
	C732.170410,410.869110 737.201172,408.861603 742.196045,406.768555 
	C745.093567,405.554352 748.500183,403.165771 750.950806,405.910797 
	C753.373352,408.624176 754.431091,412.513458 753.973267,416.586670 
	C752.897095,426.161011 747.694580,432.547363 739.617188,437.441925 
	C723.203308,447.388214 707.708191,458.516022 695.450684,473.630219 
	C685.698792,485.654785 672.563721,493.857056 660.674561,503.429108 
	C643.845825,516.977966 624.700928,526.591736 605.022400,535.295227 
	C595.805603,539.371704 586.377136,543.008301 578.534851,549.944519 
	C565.371521,561.587036 562.055176,576.146790 566.570435,592.041382 
	C569.168640,601.187866 567.401733,608.288879 561.827698,614.612061 
	C552.411926,625.293274 540.942322,632.219482 525.947205,632.426086 
	C517.393982,632.543884 509.470642,631.071777 501.841644,627.413818 
	C498.371704,625.750061 496.693024,623.335205 496.652924,619.208984 
	C496.429657,596.221191 496.142090,573.195251 499.058105,550.379028 
	C500.247925,541.069153 500.843506,531.532288 503.711304,522.452148 
	C504.626373,519.554749 505.004852,516.572693 504.835785,513.575562 
	C504.083466,500.241852 508.872009,488.954041 517.179138,478.814758 
	C524.476562,469.907867 531.564270,460.670471 542.494995,456.012421 
	C549.671082,452.954437 557.000793,450.275299 563.659119,446.161835 
	C567.753235,443.632538 571.674133,440.822906 575.972778,437.937805 
M676.103699,482.573181 
	C680.809509,479.113739 685.281738,475.385406 688.965515,470.821381 
	C698.234192,459.337952 709.379883,449.899658 721.279724,441.325562 
	C727.751221,436.662781 734.624023,432.553192 741.049561,427.831696 
	C745.834473,424.315704 747.235352,419.170563 746.715088,413.495148 
	C744.507629,412.724915 742.932312,413.514404 741.464417,414.143341 
	C721.489441,422.701691 702.820068,433.278168 686.767395,448.241699 
	C682.060852,452.628906 678.725464,458.485596 672.678650,461.461670 
	C652.390076,471.446991 630.644348,476.681427 608.665588,481.144775 
	C596.486023,483.618134 584.924988,487.358521 575.602966,496.136444 
	C572.787537,498.787628 569.542786,500.729462 565.756226,501.849518 
	C563.739990,502.445953 562.032104,502.642181 561.075500,500.580872 
	C560.049072,498.368896 561.851990,496.886292 563.367188,496.204895 
	C575.674988,490.669830 582.756470,480.007446 590.068359,469.514557 
	C598.242126,457.784790 605.875977,445.543884 619.028259,438.423950 
	C621.941101,436.847046 624.978271,435.418030 627.373657,433.019714 
	C629.107849,431.283386 631.704773,429.484650 630.542603,426.884583 
	C629.494934,424.540771 627.021057,423.294647 624.012207,423.037201 
	C615.090088,422.273804 607.346619,425.216827 599.940491,429.743225 
	C588.302673,436.855896 577.733398,445.557220 565.895935,452.387939 
	C559.225769,456.236877 551.863708,458.474335 545.067078,461.894836 
	C531.930603,468.505798 523.703613,480.138763 516.281311,492.292938 
	C514.225037,495.660034 511.787231,499.507843 511.661652,503.207611 
	C511.270752,514.725220 509.376343,525.932617 507.541809,537.262878 
	C506.150574,545.855164 505.145020,554.630432 504.480865,563.413574 
	C503.147766,581.043396 502.822418,598.640137 503.109711,616.290894 
	C503.173035,620.179565 504.976227,622.255432 508.219788,623.312866 
	C526.523499,629.279541 544.677734,625.689514 557.094360,609.993286 
	C560.822754,605.280090 562.715881,600.650696 560.520386,593.984131 
	C558.397949,587.539246 557.236877,580.289612 558.358215,573.337830 
	C560.945557,557.296692 570.306213,546.122681 584.202698,538.106934 
	C592.015259,533.600464 600.350342,530.306030 608.503174,526.656189 
	C633.180542,515.608765 655.321960,500.821960 676.103699,482.573181 
M717.666443,413.244080 
	C724.206543,401.681396 732.269531,390.986115 738.236267,378.761871 
	C734.585327,377.746796 731.909851,378.042938 729.163147,379.110138 
	C720.380371,382.522491 714.017822,388.405121 709.929871,396.919739 
	C707.710815,401.541687 706.071533,406.509796 702.874329,410.597687 
	C693.972351,421.979431 684.948730,433.266052 676.008057,444.617645 
	C673.028381,448.400787 670.154175,452.266998 666.389587,457.198486 
	C669.724121,455.394073 671.775513,454.445923 673.341858,452.598328 
	C681.581787,442.879059 691.837646,435.520172 701.945496,427.929718 
	C707.471924,423.779694 715.033264,421.656982 717.666443,413.244080 
M695.609802,408.155457 
	C699.050049,403.112366 702.731201,398.197693 704.413086,392.266205 
	C698.744080,388.074310 694.339600,389.412506 690.332703,396.417297 
	C679.081970,416.085388 666.154053,434.497345 650.136230,450.635712 
	C644.290283,456.525665 638.590027,462.560272 632.524414,468.838257 
	C641.170227,466.291687 649.628967,464.431580 656.303833,457.915894 
	C662.662476,451.708893 667.715576,444.513489 672.955078,437.475281 
	C680.191345,427.755005 688.551514,418.908752 695.609802,408.155457 
M661.054504,422.535950 
	C660.567932,424.632019 660.081360,426.728058 659.594727,428.824127 
	C663.837158,424.218475 668.619385,420.433472 670.980591,414.421387 
	C664.592529,413.314575 663.202393,417.841553 661.054504,422.535950 
z"/>
<path id="Lefthand" fill="none" opacity="1.000000" stroke="#000000" stroke-width="3" 
	d="
M294.983887,488.062256 
	C289.365112,483.532135 285.078217,478.194122 280.510559,473.136383 
	C267.756348,459.013763 252.569458,447.930969 236.037308,438.854919 
	C227.271500,434.042572 222.304108,421.526428 224.812851,411.398651 
	C225.716843,407.749207 228.791672,406.772095 233.298279,408.657440 
	C239.363190,411.194641 245.398544,413.802460 251.992264,416.612518 
	C251.026810,412.707825 248.875641,410.154724 247.169220,407.374786 
	C242.389740,399.588562 237.420334,391.909882 232.913315,383.968842 
	C230.122681,379.051971 230.976715,377.540009 236.055161,375.110565 
	C240.078751,373.185760 244.240982,373.238037 248.198746,374.693176 
	C254.767685,377.108337 261.113312,380.143433 265.843048,385.549530 
	C268.000183,388.015137 270.171936,387.972290 272.971497,386.979736 
	C281.490875,383.959167 288.282684,386.646698 292.633545,394.540894 
	C293.915100,396.866089 295.290497,399.144806 296.464233,401.523132 
	C299.170685,407.007385 302.332825,410.583801 309.651398,409.990265 
	C316.714081,409.417450 319.411957,416.181183 321.983887,421.445465 
	C326.277222,430.233124 329.829865,439.345734 335.374115,447.534576 
	C342.298065,457.761322 351.671844,465.430511 360.958679,473.227783 
	C364.069244,475.839417 368.235504,475.318237 371.877563,476.373596 
	C376.304779,477.656555 380.813965,478.656555 386.611084,480.110992 
	C376.539856,464.872833 366.767609,451.271545 351.208160,443.108124 
	C346.687805,440.736481 343.266785,437.351105 340.634399,432.839203 
	C338.383179,428.980591 339.450684,426.316284 342.070648,423.515656 
	C346.443329,418.841431 352.165802,417.756775 358.079102,418.047607 
	C366.905426,418.481689 374.824982,421.898773 382.186035,426.654938 
	C392.499115,433.318481 402.784241,440.025452 413.116547,446.659027 
	C420.571075,451.445007 429.342651,453.527802 436.977692,457.785095 
	C453.694489,467.106415 465.786133,480.816193 471.317719,499.324493 
	C474.824249,511.057007 475.091644,523.495483 477.506287,535.532959 
	C482.391235,559.885254 483.061035,584.653076 483.159851,609.418640 
	C483.177002,613.730713 483.029785,618.050293 482.758087,622.353760 
	C482.620789,624.528015 481.699219,626.191284 479.670929,627.670349 
	C471.540558,633.599121 462.228333,636.986145 452.640045,638.553589 
	C434.926300,641.449402 417.130615,631.723083 411.211395,612.726257 
	C410.311493,609.838074 410.430084,606.316345 411.111755,603.323181 
	C412.224609,598.436646 412.324982,593.366272 413.607574,588.605469 
	C418.202850,571.548645 410.240051,559.674683 398.049683,549.503357 
	C389.736115,542.566772 379.336761,539.528259 369.676483,535.182373 
	C352.032928,527.245056 334.963898,518.299744 319.257629,506.980011 
	C311.037384,501.055573 303.261627,494.514404 294.983887,488.062256 
M351.240051,425.530121 
	C346.122467,428.823212 345.996216,429.969696 349.892822,434.244354 
	C351.732117,436.262207 353.904053,437.848297 356.276276,438.971436 
	C367.600891,444.333160 375.738708,453.190674 382.817078,463.117676 
	C392.257202,476.356812 400.491302,490.662689 416.056854,498.088867 
	C417.525146,498.789398 418.933563,500.347229 417.917542,502.179932 
	C416.932129,503.957458 414.930756,504.430237 413.093109,503.661560 
	C411.117371,502.835114 409.253448,501.678223 407.464233,500.480988 
	C402.632111,497.247650 398.088104,493.514954 393.025909,490.708923 
	C383.050201,485.179169 371.991394,483.064178 360.860565,480.953308 
	C346.395996,478.210236 332.069885,474.606110 318.378906,469.045319 
	C312.893982,466.817566 306.494904,465.997437 302.290833,461.486328 
	C290.739746,449.091553 277.520996,438.843536 263.146301,430.029816 
	C252.977661,423.794952 242.147034,418.967926 230.696945,415.329559 
	C229.691010,419.440155 230.742645,422.627502 232.700760,425.986938 
	C236.083160,431.790009 241.678894,434.589417 246.978012,437.947052 
	C260.759521,446.679230 274.167969,455.844116 285.049286,468.291046 
	C288.969971,472.775879 292.612823,477.600708 297.490234,481.223633 
	C307.753540,488.847107 317.380463,497.273590 327.821228,504.699951 
	C343.772614,516.045898 361.083710,524.648499 379.055206,532.199890 
	C389.588470,536.625854 400.439026,540.741699 408.302338,549.755066 
	C418.424988,561.358093 424.134216,574.029602 419.834106,589.936096 
	C418.517761,594.805359 417.961273,600.033386 417.372681,605.096375 
	C415.727966,619.243835 430.098602,631.274170 444.621796,632.706665 
	C453.899200,633.621704 462.009735,629.577759 470.187744,625.860107 
	C475.205170,623.579163 476.739502,619.899109 476.503845,614.748901 
	C476.185242,607.784973 475.790131,600.789856 476.105377,593.838806 
	C476.779633,578.970459 473.970123,564.328430 473.675873,549.535522 
	C473.659546,548.715820 473.410736,547.900269 473.265533,547.083618 
	C471.440765,536.820496 468.915405,526.697876 467.627747,516.317810 
	C466.938477,510.761719 467.859589,505.036469 465.519287,499.624023 
	C459.896637,486.620270 450.725037,476.429382 440.160004,467.389313 
	C437.426056,465.049957 434.162720,462.908813 430.775269,461.830597 
	C419.565948,458.262726 409.692322,452.402161 399.963165,445.955841 
	C391.097809,440.081909 382.706604,433.437622 373.112854,428.677582 
	C366.406494,425.350159 359.486053,423.592194 351.240051,425.530121 
M274.858398,412.551910 
	C273.064514,409.177948 271.096954,405.883331 269.511871,402.414001 
	C265.877991,394.460327 260.904205,387.671783 252.786224,383.961517 
	C248.838730,382.157349 244.848892,379.259064 239.920990,380.892273 
	C240.124908,383.544678 241.300797,385.165070 242.227142,386.926727 
	C247.024704,396.050232 253.389877,404.203369 258.307343,413.279602 
	C260.827606,417.931244 263.273651,422.727112 268.534119,425.749237 
	C282.154449,433.574066 294.239929,443.498901 304.947723,455.048920 
	C306.615204,456.847504 308.595398,458.224365 311.513916,458.857819 
	C299.924713,442.782227 286.842834,428.561279 274.858398,412.551910 
M319.578247,457.929962 
	C327.688324,466.029907 339.761353,471.486969 346.064026,469.711761 
	C341.122101,465.135101 336.065216,460.857666 331.477020,456.125793 
	C318.405884,442.645264 305.810150,428.754578 296.033081,412.573212 
	C292.597198,406.886719 289.137817,401.202728 285.398285,395.715851 
	C283.192230,392.479034 277.340393,391.334381 274.651764,393.572327 
	C271.267853,396.389069 274.820404,398.673096 275.926239,400.857452 
	C280.994232,410.868469 288.405609,419.230621 295.544037,427.749939 
	C303.658508,437.434082 310.315338,448.266907 319.578247,457.929962 
M313.893860,426.578491 
	C315.289062,428.270294 316.684265,429.962067 318.638641,432.331879 
	C317.179352,421.385773 312.813782,415.781219 306.938599,416.921265 
	C308.515930,420.466553 311.314514,423.024780 313.893860,426.578491 
z"/>
<path id="EN" fill="none" opacity="1.000000" stroke="black" stroke-width="3"
		d="
M193.355133,310.535095 
	C184.013443,312.890625 174.978714,314.931427 165.990479,317.159790 
	C158.398270,319.042114 150.476166,319.560394 142.228241,322.678864 
	C152.813248,329.690704 164.268433,333.334869 174.490692,339.507355 
	C175.905823,337.685730 176.674362,335.597992 176.775345,333.195099 
	C176.859589,331.190247 176.912567,328.770844 179.890182,329.247345 
	C182.559082,329.674408 183.331070,331.972260 182.851685,334.218048 
	C182.022247,338.103607 181.000977,341.992249 179.589951,345.700684 
	C176.418518,354.035858 170.937729,361.008575 165.627701,368.029327 
	C160.793900,374.420441 159.069168,382.113434 156.438034,389.394684 
	C154.869659,393.734924 152.764420,393.714935 149.266708,391.977264 
	C133.649796,384.218903 117.966881,376.593475 102.326485,368.882141 
	C99.685738,367.580200 98.041557,365.879913 99.695915,362.552002 
	C104.573013,352.741119 109.294548,342.852997 114.089119,333.001007 
	C114.808937,331.521942 115.950890,330.597839 117.677124,330.953979 
	C119.428574,331.315338 119.959419,332.716858 120.155319,334.296783 
	C120.409798,336.349243 119.869614,338.146759 118.904015,340.013031 
	C115.647430,346.307373 112.597000,352.708405 109.295593,359.418457 
	C114.650192,362.029633 119.560623,364.396423 124.444550,366.816711 
	C127.186874,368.175659 129.010315,367.716644 130.402573,364.729858 
	C132.919571,359.330139 135.688110,354.043884 138.478745,348.777588 
	C139.465134,346.916168 140.341660,344.875153 142.763168,343.405029 
	C146.578018,346.516815 145.941818,350.157867 144.146500,353.941681 
	C141.875290,358.728546 139.573975,363.502502 137.192490,368.235138 
	C135.724426,371.152557 135.840469,372.959869 139.445770,374.290405 
	C143.749954,375.878845 147.763489,378.254852 152.645172,380.654572 
	C156.477829,366.600983 167.284134,356.962097 173.458130,344.199066 
	C170.672394,346.381866 168.413452,345.112518 166.039871,343.914429 
	C152.706146,337.183990 139.335770,330.526245 125.993340,323.812988 
	C123.826485,322.722748 120.718864,321.943359 121.419144,318.775635 
	C122.065300,315.852783 124.669350,314.232758 127.595299,313.575317 
	C134.865158,311.941986 142.173645,310.476715 149.427551,308.777222 
	C158.236237,306.713440 167.249710,305.470459 176.418259,302.343628 
	C172.336288,298.319092 167.426346,296.531006 162.872635,294.636597 
	C156.090530,291.815216 149.876587,287.941528 143.172684,285.023499 
	C140.442780,283.835297 139.597580,281.534912 141.010254,278.840851 
	C142.362625,276.261749 144.485245,276.833527 146.595871,277.887299 
	C161.578827,285.367676 176.552338,292.867126 191.556778,300.304199 
	C196.917358,302.961182 197.519836,305.546173 193.355133,310.535095 
z"/>
<path id="N" fill="none" opacity="1.000000" stroke-width="3"
		d="
M740.632751,234.534821 
	C740.575134,243.248749 740.575134,251.497604 740.575134,259.725311 
	C744.888611,257.191193 748.466980,252.840500 752.214905,248.759247 
	C756.938721,243.615417 762.524902,239.349258 766.935974,233.882935 
	C768.523499,231.915604 771.084106,231.160934 773.141174,233.074219 
	C775.692871,235.447495 773.305725,237.390411 771.752991,238.922028 
	C761.217896,249.313751 750.579651,259.600861 739.989929,269.937256 
	C738.681274,271.214539 737.389709,272.523071 736.220093,273.925446 
	C734.723083,275.720367 733.463806,277.994293 730.570496,276.679291 
	C727.816223,275.427429 725.849976,273.405945 726.111816,270.142761 
	C726.497131,265.340637 727.422729,260.562286 727.526550,255.760986 
	C727.785461,243.781784 727.718506,231.795364 727.747009,219.811768 
	C727.748413,219.218582 727.414673,218.624619 727.091980,217.546738 
	C721.092224,221.590286 716.938171,227.003784 712.050110,231.593491 
	C708.540161,234.889145 705.323669,238.495346 701.867981,241.851517 
	C700.324097,243.350922 698.827271,246.063934 696.163269,243.491669 
	C693.643372,241.058441 695.206177,239.022842 697.125427,237.126404 
	C704.930298,229.414230 712.741272,221.707977 720.520386,213.969757 
	C724.642761,209.868988 728.712341,205.714966 732.789551,201.569016 
	C734.447327,199.883224 736.070862,198.034271 738.782776,199.097946 
	C741.339600,200.100815 741.201172,202.463470 741.173462,204.614929 
	C741.046448,214.433640 740.857178,224.251541 740.632751,234.534821 
z"/>
<path id="G2" fill="none" opacity="1.000000" stroke-width="3"
		d="
M309.831024,155.073914 
	C312.384186,138.445816 319.561798,128.955612 336.324951,125.366310 
	C343.367340,123.858406 349.346649,125.905113 354.869263,130.029419 
	C352.703766,134.972626 350.817383,135.704468 345.908691,133.746063 
	C336.708618,130.075516 326.129974,133.766281 321.408936,142.401810 
	C319.112457,146.602478 319.892731,151.260345 320.389404,155.615768 
	C321.797089,167.961395 334.751953,181.209030 347.240021,180.726334 
	C352.938385,180.506058 358.869598,176.689163 361.002014,171.505585 
	C362.008057,169.060089 358.296112,158.682266 355.987976,157.632309 
	C354.665619,157.030777 353.425720,157.522873 352.160065,158.062805 
	C350.646149,158.708664 349.082184,159.420486 347.479309,159.621887 
	C345.945831,159.814575 344.428711,159.110123 344.085052,157.338608 
	C343.793304,155.834427 344.693726,154.750610 346.009796,154.182541 
	C351.045563,152.008926 356.072937,149.807022 361.178345,147.806839 
	C364.300659,146.583603 365.950104,148.908646 366.927155,151.185089 
	C369.534821,157.260818 371.864929,163.457306 374.236664,169.632187 
	C376.646088,175.905228 373.816742,179.517685 367.055695,178.308807 
	C365.017303,177.944351 364.115662,178.283722 362.899200,179.653915 
	C349.428955,194.826767 322.880981,189.750916 314.378662,172.219162 
	C311.792023,166.885559 310.713562,161.252609 309.831024,155.073914 
z"/>
<path id="G1" fill="none" opacity="1.000000" stroke-width="3"
		d="
M232.350922,244.675613 
	C231.397095,243.720947 230.731003,242.974915 230.009048,242.287552 
	C225.167740,237.678101 225.164932,237.683243 220.236023,242.424957 
	C219.517975,243.115738 218.855011,243.893478 218.042480,244.449738 
	C216.631531,245.415695 215.151794,245.288620 213.967865,244.059738 
	C212.658356,242.700485 213.135132,241.253082 214.252930,240.062561 
	C217.893295,236.185364 221.515488,232.285019 225.303009,228.554352 
	C227.557617,226.333603 229.953400,226.444839 232.295578,228.777756 
	C236.886673,233.350708 241.614136,237.786560 246.215668,242.349228 
	C250.766983,246.862122 249.650940,252.068542 243.411163,254.155807 
	C241.312714,254.857758 240.542740,255.943817 239.812210,257.703552 
	C234.994904,269.307617 224.471176,276.520203 211.652252,276.141724 
	C198.793137,275.762085 189.628098,269.316040 183.522507,257.877991 
	C176.332535,244.408447 179.931931,229.127380 191.772705,219.435837 
	C196.621902,215.466843 202.159958,213.682236 208.374924,213.711548 
	C210.769638,213.722855 212.210327,214.630432 212.214554,217.183060 
	C212.218430,219.536194 211.110840,220.904572 208.698044,221.187042 
	C206.558411,221.437500 204.385712,221.605255 202.304153,222.119446 
	C188.595352,225.505768 182.927597,238.523590 190.438431,250.300430 
	C197.414078,261.238098 207.758698,266.496155 220.811920,265.723389 
	C228.269791,265.281860 235.120453,257.884766 235.520370,250.436249 
	C235.653107,247.963882 234.145767,246.454865 232.350922,244.675613 
z"/>
<path id="S" fill="none" opacity="1.000000" stroke="black" stroke-width="3"
		d="
M826.824951,333.689331 
	C833.320374,334.295776 837.835449,337.323181 840.879211,342.519043 
	C845.821899,350.956238 848.763062,359.752106 845.097473,369.527527 
	C844.103333,372.178619 843.068542,375.406677 839.225830,373.638367 
	C835.915649,372.115051 836.193054,369.558441 837.792908,366.543823 
	C842.537537,357.604065 840.115784,350.103851 834.004456,344.498077 
	C831.557129,342.253143 828.776611,341.754333 825.683594,343.056732 
	C822.798462,344.271576 822.371765,346.653168 821.931396,349.479828 
	C821.018250,355.340454 822.262634,361.102417 822.112061,366.913422 
	C821.962341,372.690582 820.569702,378.085419 817.821167,383.120819 
	C813.512695,391.013916 806.566833,393.155273 798.534546,389.168793 
	C786.186646,383.040375 779.840393,362.504425 786.803345,351.078156 
	C788.403625,348.452209 790.451660,345.452179 793.843018,347.768616 
	C796.892578,349.851624 796.140808,353.206970 793.828308,355.610992 
	C788.505676,361.144073 790.542542,373.942352 798.177429,379.548676 
	C802.518005,382.735901 808.280212,380.532196 809.384521,375.197113 
	C810.786865,368.422333 809.722839,361.576050 809.677551,354.770782 
	C809.645691,349.971893 810.692261,345.362244 812.483459,341.185272 
	C814.946594,335.441498 820.101440,333.147064 826.824951,333.689331 
z"/>
<path id="E3" fill="none" opacity="1.000000" stroke-width="3"
		d="
M693.349976,172.670914 
	C689.242249,170.104553 685.441223,167.730988 681.311279,165.151978 
	C677.770508,168.530624 675.538452,172.594391 673.096191,176.455170 
	C671.786865,178.525055 673.362732,179.863297 674.988953,180.901077 
	C680.315125,184.299866 685.767212,187.515579 690.945312,191.125183 
	C692.992737,192.552414 697.231384,193.983932 695.144836,197.089417 
	C693.500244,199.537231 689.745422,198.418945 687.013977,196.596085 
	C682.035706,193.273758 676.888916,190.199341 671.973267,186.789566 
	C669.061523,184.769760 667.193542,185.421967 665.458679,188.214630 
	C662.566223,192.870682 659.610229,197.488876 656.594788,202.066223 
	C654.759216,204.852600 655.698303,206.392319 658.356323,208.036438 
	C664.425354,211.790436 670.310791,215.844620 676.214539,219.859543 
	C677.384705,220.655304 679.044189,221.077652 679.349670,223.224197 
	C676.903381,225.679581 673.937439,226.057953 670.991760,224.219955 
	C662.386658,218.850723 653.894653,213.299759 645.379761,207.786896 
	C642.226746,205.745560 641.948425,202.868805 643.883606,200.012573 
	C653.397583,185.970596 662.351196,171.573914 671.374329,157.218307 
	C673.440979,153.930420 675.978821,153.071014 679.644897,155.851303 
	C687.460022,161.778168 695.855347,166.879990 704.357666,171.782028 
	C705.358398,172.358978 706.367981,172.942459 707.282654,173.641708 
	C708.877380,174.860794 709.866272,176.455841 708.623291,178.365204 
	C707.429138,180.199600 705.452637,180.314789 703.741028,179.310837 
	C700.302185,177.293747 697.009583,175.027252 693.349976,172.670914 
z"/>
<path id="A" fill="none" opacity="1.000000" stroke-width="3"
		d="
M269.478088,173.485855 
	C281.982880,182.053635 294.210663,190.386841 306.366760,198.823364 
	C308.226837,200.114288 311.415863,200.851349 310.002686,204.348404 
	C308.897552,207.083130 303.414581,209.583405 300.759308,208.472839 
	C299.088806,207.774170 297.410004,206.875824 296.047424,205.703766 
	C292.659607,202.789627 289.685028,203.261307 286.297119,205.864929 
	C282.487885,208.792297 278.508667,211.604828 274.274567,213.846085 
	C268.962860,216.657715 266.770111,220.393982 268.292908,226.368683 
	C268.948761,228.942062 270.359589,232.917084 266.453827,233.451065 
	C262.036560,234.054993 262.542725,229.599258 261.931702,226.615768 
	C260.208893,218.203873 258.356781,209.818390 256.641296,201.405029 
	C254.786011,192.306122 253.013153,183.190292 251.234634,174.075928 
	C250.614716,170.898972 252.655807,169.282700 254.919540,167.638596 
	C257.261658,165.937561 259.328461,166.587173 261.373871,167.915619 
	C264.020996,169.634827 266.580475,171.488998 269.478088,173.485855 
M262.097565,197.435028 
	C262.934052,200.950562 264.506592,204.260010 264.352997,208.051041 
	C264.227753,211.141891 265.928741,211.876450 268.509094,210.144043 
	C273.041016,207.101395 277.556152,204.033539 282.060150,200.949707 
	C283.130798,200.216629 284.372925,199.544037 284.109558,197.382339 
	C276.098755,191.917618 267.824036,186.272903 258.655121,180.018173 
	C259.922913,186.300293 260.962585,191.452179 262.097565,197.435028 
z"/>
<path id="E2" fill="none" opacity="1.000000" stroke-width="3"
		d="
M558.215210,132.463745 
	C559.991821,133.052902 561.537048,133.268188 562.545105,135.004333 
	C561.373962,138.441208 558.920837,139.904343 555.363953,138.627670 
	C549.189880,136.411591 542.487488,137.600449 536.301819,135.321121 
	C533.562317,134.311646 531.945496,135.788788 530.965942,138.849594 
	C529.336975,143.939438 529.588928,149.354462 527.578857,154.385422 
	C526.388733,157.364059 527.490906,159.632736 531.422913,160.232437 
	C538.647888,161.334351 545.966248,162.047867 552.998840,164.228653 
	C554.406189,164.665070 556.004211,164.667587 557.265259,166.370605 
	C556.668274,169.885651 554.585388,171.569427 550.766113,170.794006 
	C540.065491,168.621460 529.379517,166.376434 518.683960,164.178909 
	C516.446411,163.719177 515.029663,162.794312 515.511169,160.124878 
	C518.625549,142.857727 521.753845,125.592468 524.712891,108.298416 
	C525.342163,104.620674 527.486450,103.396309 530.655151,103.911888 
	C540.985596,105.592735 551.291199,107.435867 561.577637,109.369453 
	C563.482849,109.727592 565.385437,110.576950 566.824829,112.490799 
	C565.619080,115.859917 563.240417,115.867691 560.130920,115.291466 
	C553.457397,114.054771 546.710022,113.219612 539.999023,112.180779 
	C536.053040,111.569954 534.612976,113.602539 534.260925,117.194252 
	C533.237366,127.637985 535.347778,130.006134 547.034973,130.765198 
	C550.697815,131.003067 554.359863,130.984116 558.215210,132.463745 
z"/>
<path id="E1" fill="none" opacity="1.000000" stroke-width="3"
		d="
M428.335236,165.571625 
	C420.107269,167.116501 412.279480,168.522415 404.454498,169.943588 
	C400.370117,170.685410 398.175201,169.163483 397.664154,164.885330 
	C396.190887,152.552399 393.449188,140.437073 391.229095,128.231049 
	C390.372101,123.519302 390.311371,118.684242 389.033356,113.989464 
	C388.357727,111.507591 389.398804,109.213608 392.405304,108.937492 
	C401.687286,108.085075 410.649323,105.482666 419.818787,104.091591 
	C423.217834,103.575935 427.015381,102.751068 430.418793,105.166260 
	C429.486938,108.695854 427.190125,109.703918 424.142578,110.164246 
	C417.919098,111.104301 411.755035,112.437019 405.532257,113.382607 
	C401.917633,113.931870 401.033936,115.836876 401.217133,119.248024 
	C401.400360,122.659554 402.627869,125.746086 403.457367,128.940552 
	C404.199799,131.799622 406.663574,130.773666 408.449768,130.202576 
	C414.960663,128.120819 421.947632,128.806305 428.450104,126.592331 
	C430.201813,125.995934 432.818115,125.652191 433.207428,128.546326 
	C433.562134,131.183258 431.608246,132.273636 429.276947,132.833450 
	C422.333588,134.500748 415.110352,134.713760 408.273956,137.006714 
	C406.479340,137.608643 405.258545,138.100494 405.356537,140.253998 
	C405.659302,146.910980 407.218750,153.374664 408.511414,159.858826 
	C409.091766,162.769791 411.852631,161.944641 413.944550,161.530197 
	C419.961365,160.338165 425.956665,159.036194 431.980011,157.879593 
	C433.266815,157.632523 434.638824,157.761032 435.967377,157.816498 
	C437.719391,157.889618 439.463715,158.266556 439.567993,160.425095 
	C439.662323,162.378845 438.254425,163.462921 436.533203,163.883881 
	C433.961365,164.512833 431.338043,164.931091 428.335236,165.571625 
z"/>
<path id="V" fill="none" opacity="1.000000" stroke-width="3"
		d="
M593.842163,121.553635 
	C595.470764,117.868881 597.912720,118.826248 600.305054,119.778633 
	C603.572754,121.079506 606.092041,122.866791 606.045227,126.985748 
	C605.937378,136.479645 606.026672,145.975754 606.032654,155.470963 
	C606.036133,161.106415 606.033264,166.741867 606.033264,173.312317 
	C612.422974,168.598404 616.653687,163.066223 621.227783,157.970062 
	C627.002930,151.535767 633.459167,145.722534 638.664795,138.761215 
	C640.128601,136.803635 642.191284,135.495728 644.684509,137.399918 
	C647.711975,139.712158 645.302063,141.747467 643.930115,143.247940 
	C634.162720,153.930557 624.227966,164.460007 614.363708,175.054367 
	C611.760864,177.849960 609.172546,180.661957 606.664001,183.541794 
	C604.826599,185.651154 602.921387,187.643250 599.873169,186.148560 
	C596.578491,184.532974 592.665405,183.695847 592.949890,178.380722 
	C593.464600,168.761627 593.462158,159.112839 593.583435,149.475281 
	C593.698669,140.314697 593.696106,131.152603 593.842163,121.553635 
z"/>

<path id="T" fill="none" opacity="1.000000" stroke-width="3"
		d="
M757.621094,315.254791 
	C755.033691,311.827240 755.819092,309.783752 759.102051,307.711609 
	C771.748169,299.729645 784.219177,291.470856 796.828430,283.429565 
	C799.795776,281.537201 801.300842,279.891022 798.737488,276.381165 
	C796.599609,273.453888 795.165039,270.024139 792.721680,267.245575 
	C790.848267,265.115173 790.265991,262.532349 792.674683,260.645081 
	C795.509766,258.423706 796.856506,261.307159 798.044617,263.126862 
	C806.396240,275.918427 814.643677,288.778015 822.937195,301.607544 
	C823.839844,303.003784 824.403870,304.405945 822.588196,305.418427 
	C820.419189,306.627960 818.247559,306.290527 816.787231,304.308167 
	C814.518982,301.229156 812.165588,298.125732 810.494934,294.715820 
	C808.455322,290.553040 806.191284,291.168732 803.044312,293.229034 
	C790.662354,301.335327 778.137451,309.224762 765.809998,317.412048 
	C762.143127,319.847443 759.728882,319.413605 757.621094,315.254791 
z"/>




<path id="moon" fill="none" opacity="1.000000" stroke-width="3"
		d="
M336.625366,236.149612 
	C341.554962,234.539276 346.098877,233.272034 350.281586,236.840836 
	C349.461121,239.516296 347.463959,239.709213 345.831024,240.387955 
	C341.471436,242.200073 339.789276,245.814560 340.536835,250.056122 
	C341.262451,254.173401 344.271912,256.538757 348.668579,256.761810 
	C350.392822,256.849335 352.799561,256.079681 353.233368,258.559113 
	C353.656708,260.978668 351.109924,261.249298 349.568939,261.930237 
	C342.207977,265.183167 335.720581,262.786041 330.953674,255.201843 
	C327.601746,249.868805 329.886749,241.731201 336.625366,236.149612 
z"/>





<path id="star" fill="none" opacity="1.000000" stroke-width="3"
		d="
M514.218506,268.491180 
	C514.338440,266.354401 513.204346,264.412140 514.560181,262.839478 
	C516.004639,261.163849 517.854858,259.957520 520.242859,260.811829 
	C522.663391,261.677795 523.222229,263.695892 523.177063,266.013824 
	C523.113892,269.258209 520.769592,270.653992 518.255127,271.539581 
	C516.113831,272.293701 514.260071,271.691772 514.218506,268.491180 
z"/>
<path id="star" fill="none" opacity="1.000000" stroke-width="3"
		d="
M636.035278,253.983337 
	C639.513184,251.755920 640.191589,255.005005 641.605774,256.435669 
	C643.209595,258.058258 642.573364,259.601624 641.025818,261.105743 
	C639.901550,262.198456 639.127625,263.651672 638.205322,264.933380 
	C630.576538,259.494110 630.439087,258.829071 636.035278,253.983337 
z"/>

<path id="star" fill="none" opacity="1.000000" stroke-width="3"
		d="
M361.062866,272.700775 
	C363.963043,273.162354 365.247162,274.680969 364.574524,277.258820 
	C364.225800,278.595276 362.970825,279.375183 361.562012,279.560089 
	C360.367371,279.716888 359.728088,278.839355 359.366669,277.897003 
	C358.601410,275.901703 358.408722,273.981262 361.062866,272.700775 
z"/>
<path id="star" fill="none" opacity="1.000000" stroke-width="3"
		d="
M473.083801,227.212646 
	C473.035461,229.201263 473.213257,231.103256 470.859283,231.182770 
	C469.448486,231.230423 468.348724,230.384705 467.969940,228.961426 
	C467.477936,227.112762 468.248291,225.702042 469.909668,224.919312 
	C471.806213,224.025772 472.577728,225.264252 473.083801,227.212646 
z"/>
<path id="star" fill="none" opacity="1.000000" stroke-width="3"
		d="
M375.174561,199.345764 
	C376.554230,201.716675 376.389496,203.485794 373.768738,204.041046 
	C372.043549,204.406555 370.838226,203.319321 370.923553,201.581192 
	C371.046204,199.082703 372.467041,198.140991 375.174561,199.345764 
z"/>
<path id="mountain1" fill="none" opacity="1.000000" stroke="silver" stroke-width="3"
		d="
M327.208466,589.003296 
	C325.373627,590.971252 324.093475,590.587341 323.288727,588.500793 
	C322.709351,586.998535 323.314667,585.600830 324.805206,585.378296 
	C327.233490,585.015686 328.162964,586.329468 327.208466,589.003296 
z"/>

</svg>